<svg width="23" height="16" viewBox="0 0 23 16" fill="none" xmlns="http://www.w3.org/2000/svg">
<path d="M22.6364 11.6719C22.6364 13.8206 21.4434 15.5625 19.0994 15.5625H3.53693C1.19301 15.5625 0 13.8206 0 11.6719V3.89062C0 1.74194 1.19301 0 3.53693 0H19.0994C21.4434 0 22.6364 1.74194 22.6364 3.89062V11.6719Z" fill="#EC1C24"/>
<path fill-rule="evenodd" clip-rule="evenodd" d="M14.0692 10.0166C13.255 11.2867 11.5598 12.0878 9.786 11.5696C8.11197 11.0794 6.96211 9.45738 7.05725 7.70801C7.14992 5.95087 8.4699 4.45651 10.1853 4.1534C12.0029 3.83048 13.463 4.8049 14.0866 5.82495C13.3477 5.09847 12.4886 4.7713 11.4827 4.88625C10.6946 4.9768 10.0361 5.33297 9.52037 5.93424C8.51093 7.10921 8.54807 8.87131 9.60208 9.98014C10.2065 10.6161 10.95 10.9489 11.8275 10.957C12.7043 10.9634 13.4481 10.6316 14.0713 10.0183" fill="white"/>
<path d="M15.6441 6.50647L16.3621 7.17283L17.3199 6.96061L16.9071 7.85192L17.4055 8.69406L16.4328 8.57699L15.7824 9.31267L15.5946 8.34992L14.6934 7.95944L15.55 7.48408L15.6441 6.50647Z" fill="white"/>
</svg>
